STARTFONT 2.1
FONT --Century12Rph-Regular-R-Normal--25-250-72-72-P-158-FONTSPECIFIC-0
SIZE 25 72 72
FONTBOUNDINGBOX 27 25 0 -5
METRICSSET 2
STARTPROPERTIES 19
FONT_ASCENT 20
FONT_DESCENT 5
PIXEL_SIZE 25
RESOLUTION_X 72
RESOLUTION_Y 72
POINT_SIZE 250
FACE_NAME "Classic 12-point H"
FOUNDRY ""
FAMILY_NAME "Century12Rph"
WEIGHT_NAME "Regular"
RELATIVE_WEIGHT 50
SLANT "R"
SPACING "P"
SETWIDTH_NAME "Normal"
RELATIVE_SETWIDTH 50
ADD_STYLE_NAME ""
AVERAGE_WIDTH 158
CHARSET_REGISTRY "FONTSPECIFIC"
CHARSET_ENCODING "0"
ENDPROPERTIES
CHARS 194
STARTCHAR char08
ENCODING 8
SWIDTH 640 0
DWIDTH 16 0
BBX 12 15 2 1
VVECTOR 8 20
SWIDTH1 0 -1000
DWIDTH1 0 -25
BITMAP 
8000
8000
8000
8000
8400
8C00
9C00
FFF0
9C00
8C00
8400
8000
8000
8000
8000
ENDCHAR
STARTCHAR char09
ENCODING 9
SWIDTH 640 0
DWIDTH 16 0
BBX 12 15 2 1
VVECTOR 8 20
SWIDTH1 0 -1000
DWIDTH1 0 -25
BITMAP 
0010
0010
0010
0010
0210
0310
0390
FFF0
0390
0310
0210
0010
0010
0010
0010
ENDCHAR
STARTCHAR char0C
ENCODING 12
SWIDTH 760 0
DWIDTH 19 0
BBX 15 17 2 1
VVECTOR 10 20
SWIDTH1 0 -1000
DWIDTH1 0 -25
BITMAP 
FFFE
8002
8002
8002
8002
8002
8002
8002
8002
8002
8002
8002
8102
8382
E7CE
0FE0
1FF0
ENDCHAR
STARTCHAR char0D
ENCODING 13
SWIDTH 680 0
DWIDTH 17 0
BBX 13 15 2 1
VVECTOR 9 20
SWIDTH1 0 -1000
DWIDTH1 0 -25
BITMAP 
07E0
0010
0008
0008
0008
0008
0008
0008
1008
3008
7010
FFE0
7000
3000
1000
ENDCHAR
STARTCHAR char1C
ENCODING 28
SWIDTH 640 0
DWIDTH 16 0
BBX 12 7 2 5
VVECTOR 8 20
SWIDTH1 0 -1000
DWIDTH1 0 -25
BITMAP 
1000
3000
7000
FFF0
7000
3000
1000
ENDCHAR
STARTCHAR char1D
ENCODING 29
SWIDTH 680 0
DWIDTH 17 0
BBX 13 7 2 5
VVECTOR 9 20
SWIDTH1 0 -1000
DWIDTH1 0 -25
BITMAP 
0040
0060
0070
FFF8
0070
0060
0040
ENDCHAR
STARTCHAR char1E
ENCODING 30
SWIDTH 560 0
DWIDTH 14 0
BBX 7 12 3 2
VVECTOR 7 20
SWIDTH1 0 -1000
DWIDTH1 0 -25
BITMAP 
10
38
7C
FE
10
10
10
10
10
10
10
10
ENDCHAR
STARTCHAR char1F
ENCODING 31
SWIDTH 560 0
DWIDTH 14 0
BBX 7 12 3 2
VVECTOR 7 20
SWIDTH1 0 -1000
DWIDTH1 0 -25
BITMAP 
10
10
10
10
10
10
10
10
FE
7C
38
10
ENDCHAR
STARTCHAR char20
ENCODING 32
SWIDTH 320 0
DWIDTH 8 0
BBX 0 0 1 -5
VVECTOR 1 -5
SWIDTH1 0 0
DWIDTH1 0 0
BITMAP 
ENDCHAR
STARTCHAR char21
ENCODING 33
SWIDTH 360 0
DWIDTH 9 0
BBX 1 17 4 0
VVECTOR 5 20
SWIDTH1 0 -1000
DWIDTH1 0 -25
BITMAP 
80
80
80
80
80
80
80
80
80
80
80
80
00
00
00
80
80
ENDCHAR
STARTCHAR char22
ENCODING 34
SWIDTH 520 0
DWIDTH 13 0
BBX 9 5 2 12
VVECTOR 7 20
SWIDTH1 0 -1000
DWIDTH1 0 -25
BITMAP 
E380
E380
4100
4100
4100
ENDCHAR
STARTCHAR char23
ENCODING 35
SWIDTH 640 0
DWIDTH 16 0
BBX 12 14 2 3
VVECTOR 8 20
SWIDTH1 0 -1000
DWIDTH1 0 -25
BITMAP 
1080
1080
1080
1080
FFF0
1080
1080
1080
1080
FFF0
1080
1080
1080
1080
ENDCHAR
STARTCHAR char24
ENCODING 36
SWIDTH 560 0
DWIDTH 14 0
BBX 10 20 2 -1
VVECTOR 7 20
SWIDTH1 0 -1000
DWIDTH1 0 -25
BITMAP 
0400
0400
0400
1E00
6180
8040
80C0
4000
3000
0C00
0300
0080
0040
C040
8040
6180
1E00
0400
0400
0400
ENDCHAR
STARTCHAR char25
ENCODING 37
SWIDTH 720 0
DWIDTH 18 0
BBX 15 17 1 0
VVECTOR 9 20
SWIDTH1 0 -1000
DWIDTH1 0 -25
BITMAP 
3800
4402
8204
8208
8210
4420
3840
0080
0100
0200
0438
0844
1082
2082
4082
0044
0038
ENDCHAR
STARTCHAR char26
ENCODING 38
SWIDTH 840 0
DWIDTH 21 0
BBX 18 17 2 0
VVECTOR 11 20
SWIDTH1 0 -1000
DWIDTH1 0 -25
BITMAP 
1E0000
210000
408000
408000
210000
120000
0C0000
140000
221FC0
410200
808200
804400
802800
801000
402800
30C440
0F0380
ENDCHAR
STARTCHAR char27
ENCODING 39
SWIDTH 320 0
DWIDTH 8 0
BBX 3 5 2 12
VVECTOR 4 20
SWIDTH1 0 -1000
DWIDTH1 0 -25
BITMAP 
E0
E0
40
40
40
ENDCHAR
STARTCHAR char28
ENCODING 40
SWIDTH 480 0
DWIDTH 12 0
BBX 8 23 2 -4
VVECTOR 6 20
SWIDTH1 0 -1000
DWIDTH1 0 -25
BITMAP 
03
0C
10
20
40
40
80
80
80
80
80
80
80
80
80
80
80
40
40
20
10
0C
03
ENDCHAR
STARTCHAR char29
ENCODING 41
SWIDTH 480 0
DWIDTH 12 0
BBX 8 23 2 -4
VVECTOR 6 20
SWIDTH1 0 -1000
DWIDTH1 0 -25
BITMAP 
C0
30
08
04
02
02
01
01
01
01
01
01
01
01
01
01
01
02
02
04
08
30
C0
ENDCHAR
STARTCHAR char2A
ENCODING 42
SWIDTH 600 0
DWIDTH 15 0
BBX 12 9 1 7
VVECTOR 7 20
SWIDTH1 0 -1000
DWIDTH1 0 -25
BITMAP 
2040
1080
0900
0600
FBF0
0600
0900
1080
2040
ENDCHAR
STARTCHAR char2B
ENCODING 43
SWIDTH 600 0
DWIDTH 15 0
BBX 11 11 2 4
VVECTOR 8 20
SWIDTH1 0 -1000
DWIDTH1 0 -25
BITMAP 
0400
0400
0400
0400
0400
FFE0
0400
0400
0400
0400
0400
ENDCHAR
STARTCHAR char2C
ENCODING 44
SWIDTH 320 0
DWIDTH 8 0
BBX 3 6 2 -4
VVECTOR 4 20
SWIDTH1 0 -1000
DWIDTH1 0 -25
BITMAP 
C0
E0
20
20
40
80
ENDCHAR
STARTCHAR char2D
ENCODING 45
SWIDTH 600 0
DWIDTH 15 0
BBX 11 1 2 9
VVECTOR 8 20
SWIDTH1 0 -1000
DWIDTH1 0 -25
BITMAP 
FFE0
ENDCHAR
STARTCHAR char2E
ENCODING 46
SWIDTH 320 0
DWIDTH 8 0
BBX 3 2 2 0
VVECTOR 4 20
SWIDTH1 0 -1000
DWIDTH1 0 -25
BITMAP 
E0
E0
ENDCHAR
STARTCHAR char2F
ENCODING 47
SWIDTH 480 0
DWIDTH 12 0
BBX 8 17 2 0
VVECTOR 6 20
SWIDTH1 0 -1000
DWIDTH1 0 -25
BITMAP 
01
01
02
02
04
04
08
08
10
10
20
20
20
40
40
80
80
ENDCHAR
STARTCHAR char30
ENCODING 48
SWIDTH 560 0
DWIDTH 14 0
BBX 10 17 2 0
VVECTOR 7 20
SWIDTH1 0 -1000
DWIDTH1 0 -25
BITMAP 
1E00
2100
4080
8040
8040
8040
8040
8040
8040
8040
8040
8040
8040
8040
4080
2100
1E00
ENDCHAR
STARTCHAR char31
ENCODING 49
SWIDTH 560 0
DWIDTH 14 0
BBX 9 17 2 0
VVECTOR 7 20
SWIDTH1 0 -1000
DWIDTH1 0 -25
BITMAP 
0800
1800
F800
0800
0800
0800
0800
0800
0800
0800
0800
0800
0800
0800
0800
0800
FF80
ENDCHAR
STARTCHAR char32
ENCODING 50
SWIDTH 560 0
DWIDTH 14 0
BBX 10 17 2 0
VVECTOR 7 20
SWIDTH1 0 -1000
DWIDTH1 0 -25
BITMAP 
3E00
4180
8040
6040
0040
0040
0080
0100
0200
0C00
1000
2000
4000
4040
8040
80C0
FFC0
ENDCHAR
STARTCHAR char33
ENCODING 51
SWIDTH 560 0
DWIDTH 14 0
BBX 10 17 2 0
VVECTOR 7 20
SWIDTH1 0 -1000
DWIDTH1 0 -25
BITMAP 
3E00
4100
8080
C040
0040
0040
0080
0100
0E00
0100
0080
0040
0040
C040
8080
4100
3E00
ENDCHAR
STARTCHAR char34
ENCODING 52
SWIDTH 560 0
DWIDTH 14 0
BBX 12 17 1 0
VVECTOR 7 20
SWIDTH1 0 -1000
DWIDTH1 0 -25
BITMAP 
0180
0280
0480
0480
0880
1080
1080
2080
4080
4080
8080
FFF0
0080
0080
0080
0080
07F0
ENDCHAR
STARTCHAR char35
ENCODING 53
SWIDTH 560 0
DWIDTH 14 0
BBX 10 17 2 0
VVECTOR 7 20
SWIDTH1 0 -1000
DWIDTH1 0 -25
BITMAP 
7F80
4000
4000
4000
4000
4000
5E00
6100
4080
0040
0040
0040
0040
C040
8080
4100
3E00
ENDCHAR
STARTCHAR char36
ENCODING 54
SWIDTH 560 0
DWIDTH 14 0
BBX 10 17 2 0
VVECTOR 7 20
SWIDTH1 0 -1000
DWIDTH1 0 -25
BITMAP 
1F00
2080
4040
8080
8000
8000
9E00
A100
C080
8040
8040
8040
8040
8040
4080
2100
1E00
ENDCHAR
STARTCHAR char37
ENCODING 55
SWIDTH 560 0
DWIDTH 14 0
BBX 10 17 2 0
VVECTOR 7 20
SWIDTH1 0 -1000
DWIDTH1 0 -25
BITMAP 
FFC0
C040
8040
8080
0080
0100
0100
0100
0200
0200
0200
0200
0400
0400
0400
0400
0400
ENDCHAR
STARTCHAR char38
ENCODING 56
SWIDTH 560 0
DWIDTH 14 0
BBX 10 17 2 0
VVECTOR 7 20
SWIDTH1 0 -1000
DWIDTH1 0 -25
BITMAP 
3F00
4080
8040
8040
8040
4080
3100
0C00
2300
4080
8040
8040
8040
8040
8040
4080
3F00
ENDCHAR
STARTCHAR char39
ENCODING 57
SWIDTH 560 0
DWIDTH 14 0
BBX 10 17 2 0
VVECTOR 7 20
SWIDTH1 0 -1000
DWIDTH1 0 -25
BITMAP 
1E00
2100
4080
8040
8040
8040
8040
8040
40C0
2140
1E40
0040
0040
4040
8080
4100
3E00
ENDCHAR
STARTCHAR char3A
ENCODING 58
SWIDTH 320 0
DWIDTH 8 0
BBX 3 11 3 0
VVECTOR 5 20
SWIDTH1 0 -1000
DWIDTH1 0 -25
BITMAP 
E0
E0
00
00
00
00
00
00
00
E0
E0
ENDCHAR
STARTCHAR char3B
ENCODING 59
SWIDTH 320 0
DWIDTH 8 0
BBX 3 15 2 -4
VVECTOR 4 20
SWIDTH1 0 -1000
DWIDTH1 0 -25
BITMAP 
E0
E0
00
00
00
00
00
00
00
C0
E0
20
20
40
80
ENDCHAR
STARTCHAR char3C
ENCODING 60
SWIDTH 640 0
DWIDTH 16 0
BBX 7 13 4 1
VVECTOR 8 20
SWIDTH1 0 -1000
DWIDTH1 0 -25
BITMAP 
02
04
08
10
20
40
80
40
20
10
08
04
02
ENDCHAR
STARTCHAR char3D
ENCODING 61
SWIDTH 600 0
DWIDTH 15 0
BBX 11 5 2 7
VVECTOR 8 20
SWIDTH1 0 -1000
DWIDTH1 0 -25
BITMAP 
FFE0
0000
0000
0000
FFE0
ENDCHAR
STARTCHAR char3E
ENCODING 62
SWIDTH 640 0
DWIDTH 16 0
BBX 7 13 5 1
VVECTOR 9 20
SWIDTH1 0 -1000
DWIDTH1 0 -25
BITMAP 
80
40
20
10
08
04
02
04
08
10
20
40
80
ENDCHAR
STARTCHAR char3F
ENCODING 63
SWIDTH 600 0
DWIDTH 15 0
BBX 11 17 2 0
VVECTOR 8 20
SWIDTH1 0 -1000
DWIDTH1 0 -25
BITMAP 
1F00
6080
8040
C020
0020
0020
0040
0080
0100
0200
0400
0400
0400
0000
0000
0400
0400
ENDCHAR
STARTCHAR char40
ENCODING 64
SWIDTH 800 0
DWIDTH 20 0
BBX 16 15 2 1
VVECTOR 10 20
SWIDTH1 0 -1000
DWIDTH1 0 -25
BITMAP 
1FF8
2004
4002
8001
83E1
8421
8421
8421
8421
8462
839C
8000
4000
2000
1FE0
ENDCHAR
STARTCHAR char41
ENCODING 65
SWIDTH 840 0
DWIDTH 21 0
BBX 19 17 1 0
VVECTOR 11 20
SWIDTH1 0 -1000
DWIDTH1 0 -25
BITMAP 
004000
00A000
00A000
011000
011000
020800
020800
020800
040400
040400
0FFE00
080200
080200
100100
100100
100100
FE07E0
ENDCHAR
STARTCHAR char42
ENCODING 66
SWIDTH 760 0
DWIDTH 19 0
BBX 16 17 1 0
VVECTOR 9 20
SWIDTH1 0 -1000
DWIDTH1 0 -25
BITMAP 
FFF0
0808
0804
0802
0802
0802
0804
0808
0FF0
080C
0802
0801
0801
0801
0802
0804
FFF8
ENDCHAR
STARTCHAR char43
ENCODING 67
SWIDTH 720 0
DWIDTH 18 0
BBX 14 17 2 0
VVECTOR 9 20
SWIDTH1 0 -1000
DWIDTH1 0 -25
BITMAP 
07C4
1834
200C
4004
4004
8000
8000
8000
8000
8000
8000
8000
4004
4004
2008
1830
07C0
ENDCHAR
STARTCHAR char44
ENCODING 68
SWIDTH 760 0
DWIDTH 19 0
BBX 16 17 1 0
VVECTOR 9 20
SWIDTH1 0 -1000
DWIDTH1 0 -25
BITMAP 
FFE0
0818
0804
0802
0802
0801
0801
0801
0801
0801
0801
0801
0802
0802
0804
0818
FFE0
ENDCHAR
STARTCHAR char45
ENCODING 69
SWIDTH 680 0
DWIDTH 17 0
BBX 14 17 1 0
VVECTOR 8 20
SWIDTH1 0 -1000
DWIDTH1 0 -25
BITMAP 
FFFC
100C
1004
1004
1000
1040
1040
1FC0
1040
1040
1000
1000
1000
1004
1004
100C
FFFC
ENDCHAR
STARTCHAR char46
ENCODING 70
SWIDTH 680 0
DWIDTH 17 0
BBX 14 17 1 0
VVECTOR 8 20
SWIDTH1 0 -1000
DWIDTH1 0 -25
BITMAP 
FFFC
100C
1004
1004
1000
1040
1040
1FC0
1040
1040
1000
1000
1000
1000
1000
1000
FF00
ENDCHAR
STARTCHAR char47
ENCODING 71
SWIDTH 800 0
DWIDTH 20 0
BBX 17 17 2 0
VVECTOR 11 20
SWIDTH1 0 -1000
DWIDTH1 0 -25
BITMAP 
07C400
183400
200C00
400400
400400
800000
800000
800000
800000
807F80
800400
800400
400C00
401400
202400
184400
078400
ENDCHAR
STARTCHAR char48
ENCODING 72
SWIDTH 800 0
DWIDTH 20 0
BBX 18 17 1 0
VVECTOR 10 20
SWIDTH1 0 -1000
DWIDTH1 0 -25
BITMAP 
FE1FC0
100200
100200
100200
100200
100200
100200
100200
1FFE00
100200
100200
100200
100200
100200
100200
100200
FE1FC0
ENDCHAR
STARTCHAR char49
ENCODING 73
SWIDTH 440 0
DWIDTH 11 0
BBX 7 17 2 0
VVECTOR 6 20
SWIDTH1 0 -1000
DWIDTH1 0 -25
BITMAP 
FE
10
10
10
10
10
10
10
10
10
10
10
10
10
10
10
FE
ENDCHAR
STARTCHAR char4A
ENCODING 74
SWIDTH 560 0
DWIDTH 14 0
BBX 12 17 1 0
VVECTOR 7 20
SWIDTH1 0 -1000
DWIDTH1 0 -25
BITMAP 
07F0
0080
0080
0080
0080
0080
0080
0080
0080
0080
0080
0080
6080
8080
8080
4100
3E00
ENDCHAR
STARTCHAR char4B
ENCODING 75
SWIDTH 800 0
DWIDTH 20 0
BBX 18 17 1 0
VVECTOR 10 20
SWIDTH1 0 -1000
DWIDTH1 0 -25
BITMAP 
FE0FC0
100200
100400
100800
101000
102000
104000
108000
110000
128000
144000
182000
101000
100800
100400
100200
FE1FC0
ENDCHAR
STARTCHAR char4C
ENCODING 76
SWIDTH 680 0
DWIDTH 17 0
BBX 14 17 1 0
VVECTOR 8 20
SWIDTH1 0 -1000
DWIDTH1 0 -25
BITMAP 
FE00
1000
1000
1000
1000
1000
1000
1000
1000
1000
1000
1000
1004
1004
1004
100C
FFFC
ENDCHAR
STARTCHAR char4D
ENCODING 77
SWIDTH 920 0
DWIDTH 23 0
BBX 21 17 1 0
VVECTOR 12 20
SWIDTH1 0 -1000
DWIDTH1 0 -25
BITMAP 
F800F8
1800C0
140140
140140
120240
120240
110440
110440
108840
108840
105040
105040
102040
102040
100040
100040
FE03F8
ENDCHAR
STARTCHAR char4E
ENCODING 78
SWIDTH 840 0
DWIDTH 21 0
BBX 19 17 1 0
VVECTOR 11 20
SWIDTH1 0 -1000
DWIDTH1 0 -25
BITMAP 
F00FE0
180100
140100
120100
120100
110100
108100
108100
104100
102100
102100
101100
100900
100900
100500
100300
FE0100
ENDCHAR
STARTCHAR char4F
ENCODING 79
SWIDTH 840 0
DWIDTH 21 0
BBX 15 17 3 0
VVECTOR 11 20
SWIDTH1 0 -1000
DWIDTH1 0 -25
BITMAP 
07C0
1830
2008
4004
4004
8002
8002
8002
8002
8002
8002
8002
4004
4004
2008
1830
07C0
ENDCHAR
STARTCHAR char50
ENCODING 80
SWIDTH 680 0
DWIDTH 17 0
BBX 14 17 1 0
VVECTOR 8 20
SWIDTH1 0 -1000
DWIDTH1 0 -25
BITMAP 
FFE0
1010
1008
1004
1004
1004
1008
1010
1FE0
1000
1000
1000
1000
1000
1000
1000
FE00
ENDCHAR
STARTCHAR char51
ENCODING 81
SWIDTH 840 0
DWIDTH 21 0
BBX 16 20 3 -3
VVECTOR 11 20
SWIDTH1 0 -1000
DWIDTH1 0 -25
BITMAP 
07C0
1830
2008
4004
4004
8002
8002
8002
8002
8002
8002
8782
4844
4824
2028
1C10
07E0
0021
0021
001E
ENDCHAR
STARTCHAR char52
ENCODING 82
SWIDTH 800 0
DWIDTH 20 0
BBX 17 17 1 0
VVECTOR 10 20
SWIDTH1 0 -1000
DWIDTH1 0 -25
BITMAP 
FFE000
101800
100400
100200
100200
100200
100400
101800
1FE000
101000
100800
100800
100800
100800
100800
100880
FE0700
ENDCHAR
STARTCHAR char53
ENCODING 83
SWIDTH 720 0
DWIDTH 18 0
BBX 14 18 2 0
VVECTOR 9 20
SWIDTH1 0 -1000
DWIDTH1 0 -25
BITMAP 
0F88
3068
4018
8008
8008
8000
4000
3000
0E00
01C0
0030
0008
0004
8004
8004
C008
B030
8FC0
ENDCHAR
STARTCHAR char54
ENCODING 84
SWIDTH 760 0
DWIDTH 19 0
BBX 15 17 2 0
VVECTOR 10 20
SWIDTH1 0 -1000
DWIDTH1 0 -25
BITMAP 
FFFE
C106
8102
8102
8102
0100
0100
0100
0100
0100
0100
0100
0100
0100
0100
0100
1FF0
ENDCHAR
STARTCHAR char55
ENCODING 85
SWIDTH 840 0
DWIDTH 21 0
BBX 19 17 1 0
VVECTOR 11 20
SWIDTH1 0 -1000
DWIDTH1 0 -25
BITMAP 
FE0FE0
100100
100100
100100
100100
100100
100100
100100
100100
100100
100100
100100
100100
100100
080200
060C00
01F000
ENDCHAR
STARTCHAR char56
ENCODING 86
SWIDTH 840 0
DWIDTH 21 0
BBX 19 17 1 0
VVECTOR 11 20
SWIDTH1 0 -1000
DWIDTH1 0 -25
BITMAP 
FE0FE0
100100
100100
080200
080200
080200
040400
040400
040400
020800
020800
020800
011000
011000
00A000
00A000
004000
ENDCHAR
STARTCHAR char57
ENCODING 87
SWIDTH 1000 0
DWIDTH 25 0
BBX 23 17 1 0
VVECTOR 13 20
SWIDTH1 0 -1000
DWIDTH1 0 -25
BITMAP 
FE00FE
100010
100010
100010
080020
080020
081020
081020
042840
042840
044440
044440
024480
028280
028280
010100
010100
ENDCHAR
STARTCHAR char58
ENCODING 88
SWIDTH 920 0
DWIDTH 23 0
BBX 17 17 3 0
VVECTOR 12 20
SWIDTH1 0 -1000
DWIDTH1 0 -25
BITMAP 
FC1F80
100400
100400
080800
041000
022000
022000
014000
008000
014000
022000
022000
041000
080800
100400
100400
FC3F80
ENDCHAR
STARTCHAR char59
ENCODING 89
SWIDTH 840 0
DWIDTH 21 0
BBX 19 17 1 0
VVECTOR 11 20
SWIDTH1 0 -1000
DWIDTH1 0 -25
BITMAP 
FE0FE0
080200
080200
040400
040400
020800
020800
011000
00A000
00A000
004000
004000
004000
004000
004000
004000
07FC00
ENDCHAR
STARTCHAR char5A
ENCODING 90
SWIDTH 720 0
DWIDTH 18 0
BBX 14 17 2 0
VVECTOR 9 20
SWIDTH1 0 -1000
DWIDTH1 0 -25
BITMAP 
7FFC
6008
4010
4020
4040
0040
0080
0100
0200
0200
0400
0800
1004
1004
2004
400C
FFFC
ENDCHAR
STARTCHAR char5B
ENCODING 91
SWIDTH 480 0
DWIDTH 12 0
BBX 6 23 3 -4
VVECTOR 6 20
SWIDTH1 0 -1000
DWIDTH1 0 -25
BITMAP 
FC
80
80
80
80
80
80
80
80
80
80
80
80
80
80
80
80
80
80
80
80
80
FC
ENDCHAR
STARTCHAR char5C
ENCODING 92
SWIDTH 480 0
DWIDTH 12 0
BBX 8 17 2 0
VVECTOR 6 20
SWIDTH1 0 -1000
DWIDTH1 0 -25
BITMAP 
80
80
40
40
20
20
10
10
08
08
08
04
04
02
02
01
01
ENDCHAR
STARTCHAR char5D
ENCODING 93
SWIDTH 480 0
DWIDTH 12 0
BBX 6 23 3 -4
VVECTOR 6 20
SWIDTH1 0 -1000
DWIDTH1 0 -25
BITMAP 
FC
04
04
04
04
04
04
04
04
04
04
04
04
04
04
04
04
04
04
04
04
04
FC
ENDCHAR
STARTCHAR char5E
ENCODING 94
SWIDTH 640 0
DWIDTH 16 0
BBX 7 4 4 16
VVECTOR 8 20
SWIDTH1 0 -1000
DWIDTH1 0 -25
BITMAP 
10
28
44
82
ENDCHAR
STARTCHAR char5F
ENCODING 95
SWIDTH 640 0
DWIDTH 16 0
BBX 16 1 0 -5
VVECTOR 8 20
SWIDTH1 0 -1000
DWIDTH1 0 -25
BITMAP 
FFFF
ENDCHAR
STARTCHAR char60
ENCODING 96
SWIDTH 640 0
DWIDTH 16 0
BBX 5 3 4 17
VVECTOR 7 20
SWIDTH1 0 -1000
DWIDTH1 0 -25
BITMAP 
E0
30
08
ENDCHAR
STARTCHAR char61
ENCODING 97
SWIDTH 560 0
DWIDTH 14 0
BBX 12 12 1 0
VVECTOR 7 20
SWIDTH1 0 -1000
DWIDTH1 0 -25
BITMAP 
3F00
4080
0040
0040
03C0
1C40
6040
8040
8040
80C0
4340
3C30
ENDCHAR
STARTCHAR char62
ENCODING 98
SWIDTH 680 0
DWIDTH 17 0
BBX 14 17 1 0
VVECTOR 8 20
SWIDTH1 0 -1000
DWIDTH1 0 -25
BITMAP 
F000
1000
1000
1000
1000
10E0
1310
1408
1804
1004
1004
1004
1004
1804
1408
1310
10E0
ENDCHAR
STARTCHAR char63
ENCODING 99
SWIDTH 560 0
DWIDTH 14 0
BBX 10 12 2 0
VVECTOR 7 20
SWIDTH1 0 -1000
DWIDTH1 0 -25
BITMAP 
1F00
2080
4040
8180
8000
8000
8000
8000
8000
4040
2080
1F00
ENDCHAR
STARTCHAR char64
ENCODING 100
SWIDTH 680 0
DWIDTH 17 0
BBX 14 17 2 0
VVECTOR 9 20
SWIDTH1 0 -1000
DWIDTH1 0 -25
BITMAP 
01E0
0020
0020
0020
0020
1C20
2320
40A0
8060
8020
8020
8020
8020
8060
40A0
2320
1C3C
ENDCHAR
STARTCHAR char65
ENCODING 101
SWIDTH 560 0
DWIDTH 14 0
BBX 10 12 2 0
VVECTOR 7 20
SWIDTH1 0 -1000
DWIDTH1 0 -25
BITMAP 
1E00
2100
4080
8040
8040
FFC0
8000
8000
8000
4000
2080
1F00
ENDCHAR
STARTCHAR char66
ENCODING 102
SWIDTH 480 0
DWIDTH 12 0
BBX 10 17 1 0
VVECTOR 6 20
SWIDTH1 0 -1000
DWIDTH1 0 -25
BITMAP 
0780
0840
10C0
1000
1000
1000
FF00
1000
1000
1000
1000
1000
1000
1000
1000
1000
FE00
ENDCHAR
STARTCHAR char67
ENCODING 103
SWIDTH 560 0
DWIDTH 14 0
BBX 13 19 1 -5
VVECTOR 8 20
SWIDTH1 0 -1000
DWIDTH1 0 -25
BITMAP 
0030
0048
1F40
2080
4040
4040
4040
4040
2080
1F00
2000
4000
2000
1F80
6060
8010
8010
4020
3FC0
ENDCHAR
STARTCHAR char68
ENCODING 104
SWIDTH 720 0
DWIDTH 18 0
BBX 16 17 1 0
VVECTOR 9 20
SWIDTH1 0 -1000
DWIDTH1 0 -25
BITMAP 
F000
1000
1000
1000
1000
11E0
1210
1408
1808
1008
1008
1008
1008
1008
1008
1008
FE0F
ENDCHAR
STARTCHAR char69
ENCODING 105
SWIDTH 440 0
DWIDTH 11 0
BBX 7 18 2 0
VVECTOR 6 20
SWIDTH1 0 -1000
DWIDTH1 0 -25
BITMAP 
30
30
00
00
00
00
F0
10
10
10
10
10
10
10
10
10
10
FE
ENDCHAR
STARTCHAR char6A
ENCODING 106
SWIDTH 440 0
DWIDTH 11 0
BBX 8 23 1 -5
VVECTOR 5 20
SWIDTH1 0 -1000
DWIDTH1 0 -25
BITMAP 
03
03
00
00
00
00
0F
01
01
01
01
01
01
01
01
01
01
01
01
61
81
42
3C
ENDCHAR
STARTCHAR char6B
ENCODING 107
SWIDTH 720 0
DWIDTH 18 0
BBX 15 18 1 0
VVECTOR 9 20
SWIDTH1 0 -1000
DWIDTH1 0 -25
BITMAP 
F000
1000
1000
1000
1000
1000
103C
1020
1040
1080
1100
1200
1500
1880
1040
1020
1010
F01E
ENDCHAR
STARTCHAR char6C
ENCODING 108
SWIDTH 440 0
DWIDTH 11 0
BBX 7 17 2 0
VVECTOR 6 20
SWIDTH1 0 -1000
DWIDTH1 0 -25
BITMAP 
F0
10
10
10
10
10
10
10
10
10
10
10
10
10
10
10
FE
ENDCHAR
STARTCHAR char6D
ENCODING 109
SWIDTH 840 0
DWIDTH 21 0
BBX 19 12 1 0
VVECTOR 11 20
SWIDTH1 0 -1000
DWIDTH1 0 -25
BITMAP 
E78F00
285080
306080
204080
204080
204080
204080
204080
204080
204080
204080
F870E0
ENDCHAR
STARTCHAR char6E
ENCODING 110
SWIDTH 720 0
DWIDTH 18 0
BBX 16 12 1 0
VVECTOR 9 20
SWIDTH1 0 -1000
DWIDTH1 0 -25
BITMAP 
F1E0
1210
1408
1808
1008
1008
1008
1008
1008
1008
1008
FC0F
ENDCHAR
STARTCHAR char6F
ENCODING 111
SWIDTH 560 0
DWIDTH 14 0
BBX 10 12 2 0
VVECTOR 7 20
SWIDTH1 0 -1000
DWIDTH1 0 -25
BITMAP 
1E00
2100
4080
8040
8040
8040
8040
8040
8040
4080
2100
1E00
ENDCHAR
STARTCHAR char70
ENCODING 112
SWIDTH 680 0
DWIDTH 17 0
BBX 14 17 1 -5
VVECTOR 8 20
SWIDTH1 0 -1000
DWIDTH1 0 -25
BITMAP 
F0E0
1310
1408
1804
1004
1004
1004
1004
1804
1408
1310
10E0
1000
1000
1000
1000
FE00
ENDCHAR
STARTCHAR char71
ENCODING 113
SWIDTH 640 0
DWIDTH 16 0
BBX 14 17 2 -5
VVECTOR 9 20
SWIDTH1 0 -1000
DWIDTH1 0 -25
BITMAP 
1C20
2320
40A0
8060
8020
8020
8020
8020
8060
40A0
2320
1C20
0020
0020
0020
0020
01FC
ENDCHAR
STARTCHAR char72
ENCODING 114
SWIDTH 560 0
DWIDTH 14 0
BBX 11 12 1 0
VVECTOR 7 20
SWIDTH1 0 -1000
DWIDTH1 0 -25
BITMAP 
F1C0
1220
1420
1860
1000
1000
1000
1000
1000
1000
1000
FE00
ENDCHAR
STARTCHAR char73
ENCODING 115
SWIDTH 560 0
DWIDTH 14 0
BBX 10 12 2 0
VVECTOR 7 20
SWIDTH1 0 -1000
DWIDTH1 0 -25
BITMAP 
3E40
41C0
8040
8040
6000
1C00
0300
00C0
8040
8040
E080
9F00
ENDCHAR
STARTCHAR char74
ENCODING 116
SWIDTH 440 0
DWIDTH 11 0
BBX 9 15 1 0
VVECTOR 6 20
SWIDTH1 0 -1000
DWIDTH1 0 -25
BITMAP 
1000
1000
1000
FF00
1000
1000
1000
1000
1000
1000
1000
1000
1080
0880
0700
ENDCHAR
STARTCHAR char75
ENCODING 117
SWIDTH 720 0
DWIDTH 18 0
BBX 16 12 1 0
VVECTOR 9 20
SWIDTH1 0 -1000
DWIDTH1 0 -25
BITMAP 
F078
1008
1008
1008
1008
1008
1008
1008
1008
1028
0848
078F
ENDCHAR
STARTCHAR char76
ENCODING 118
SWIDTH 760 0
DWIDTH 19 0
BBX 17 12 1 0
VVECTOR 10 20
SWIDTH1 0 -1000
DWIDTH1 0 -25
BITMAP 
FC1F80
100400
100400
080800
080800
041000
041000
022000
022000
014000
014000
008000
ENDCHAR
STARTCHAR char77
ENCODING 119
SWIDTH 840 0
DWIDTH 21 0
BBX 19 12 1 0
VVECTOR 11 20
SWIDTH1 0 -1000
DWIDTH1 0 -25
BITMAP 
FC07E0
100100
100100
100100
084200
084200
08A200
04A400
051400
051400
020800
020800
ENDCHAR
STARTCHAR char78
ENCODING 120
SWIDTH 720 0
DWIDTH 18 0
BBX 16 12 1 0
VVECTOR 9 20
SWIDTH1 0 -1000
DWIDTH1 0 -25
BITMAP 
FC3F
1008
0810
0420
0240
0180
0180
0240
0420
0810
1008
FC3F
ENDCHAR
STARTCHAR char79
ENCODING 121
SWIDTH 680 0
DWIDTH 17 0
BBX 15 17 1 -5
VVECTOR 9 20
SWIDTH1 0 -1000
DWIDTH1 0 -25
BITMAP 
FC7E
1010
1010
1010
0820
0820
0440
0440
0440
0280
0280
0100
0100
0200
C200
8400
7800
ENDCHAR
STARTCHAR char7A
ENCODING 122
SWIDTH 560 0
DWIDTH 14 0
BBX 10 12 2 0
VVECTOR 7 20
SWIDTH1 0 -1000
DWIDTH1 0 -25
BITMAP 
FFC0
C040
8080
8100
0200
0400
0800
1000
2040
4040
80C0
FFC0
ENDCHAR
STARTCHAR char7B
ENCODING 123
SWIDTH 480 0
DWIDTH 12 0
BBX 9 23 1 -4
VVECTOR 6 20
SWIDTH1 0 -1000
DWIDTH1 0 -25
BITMAP 
0380
0400
0800
0800
0800
0800
0800
0800
0800
0800
1000
E000
1000
0800
0800
0800
0800
0800
0800
0800
0800
0400
0380
ENDCHAR
STARTCHAR char7C
ENCODING 124
SWIDTH 320 0
DWIDTH 8 0
BBX 1 23 3 -4
VVECTOR 4 20
SWIDTH1 0 -1000
DWIDTH1 0 -25
BITMAP 
80
80
80
80
80
80
80
80
80
80
80
80
80
80
80
80
80
80
80
80
80
80
80
ENDCHAR
STARTCHAR char7D
ENCODING 125
SWIDTH 480 0
DWIDTH 12 0
BBX 9 23 2 -4
VVECTOR 7 20
SWIDTH1 0 -1000
DWIDTH1 0 -25
BITMAP 
E000
1000
0800
0800
0800
0800
0800
0800
0800
0800
0400
0380
0400
0800
0800
0800
0800
0800
0800
0800
0800
1000
E000
ENDCHAR
STARTCHAR char7E
ENCODING 126
SWIDTH 640 0
DWIDTH 16 0
BBX 9 3 3 17
VVECTOR 8 20
SWIDTH1 0 -1000
DWIDTH1 0 -25
BITMAP 
7080
8880
8700
ENDCHAR
STARTCHAR char7F
ENCODING 127
SWIDTH 80 0
DWIDTH 2 0
BBX 0 0 1 -5
VVECTOR 1 -5
SWIDTH1 0 0
DWIDTH1 0 0
BITMAP 
ENDCHAR
STARTCHAR char80
ENCODING 128
SWIDTH 840 0
DWIDTH 21 0
BBX 19 20 1 0
VVECTOR 11 20
SWIDTH1 0 -1000
DWIDTH1 0 -25
BITMAP 
060C00
000000
000000
004000
00A000
00A000
011000
011000
020800
020800
040400
040400
07FC00
080200
080200
080200
100100
100100
100100
FE07E0
ENDCHAR
STARTCHAR char81
ENCODING 129
SWIDTH 840 0
DWIDTH 21 0
BBX 19 20 1 0
VVECTOR 11 20
SWIDTH1 0 -1000
DWIDTH1 0 -25
BITMAP 
00E000
011000
011000
011000
00A000
00A000
011000
011000
020800
020800
040400
040400
07FC00
080200
080200
080200
100100
100100
100100
FE07E0
ENDCHAR
STARTCHAR char82
ENCODING 130
SWIDTH 720 0
DWIDTH 18 0
BBX 14 22 2 -5
VVECTOR 9 20
SWIDTH1 0 -1000
DWIDTH1 0 -25
BITMAP 
07C4
1834
200C
4004
4004
8000
8000
8000
8000
8000
8000
8000
4004
4004
2008
1830
07C0
0100
0380
0040
0040
0780
ENDCHAR
STARTCHAR char83
ENCODING 131
SWIDTH 680 0
DWIDTH 17 0
BBX 14 20 1 0
VVECTOR 8 20
SWIDTH1 0 -1000
DWIDTH1 0 -25
BITMAP 
00C0
0180
0000
0000
FFFC
100C
1004
1004
1040
1040
1FC0
1040
1040
1000
1000
1000
1004
1004
100C
FFFC
ENDCHAR
STARTCHAR char84
ENCODING 132
SWIDTH 840 0
DWIDTH 21 0
BBX 19 20 1 0
VVECTOR 11 20
SWIDTH1 0 -1000
DWIDTH1 0 -25
BITMAP 
078400
087800
000000
000000
F00FE0
180100
140100
120100
110100
110100
108100
104100
102100
102100
101100
100900
100500
100300
100100
FE0100
ENDCHAR
STARTCHAR char85
ENCODING 133
SWIDTH 840 0
DWIDTH 21 0
BBX 15 20 3 0
VVECTOR 11 20
SWIDTH1 0 -1000
DWIDTH1 0 -25
BITMAP 
3018
0000
0000
0000
07C0
1830
2008
4004
4004
8002
8002
8002
8002
8002
0002
4004
4004
2008
1830
07C0
ENDCHAR
STARTCHAR char86
ENCODING 134
SWIDTH 840 0
DWIDTH 21 0
BBX 19 20 1 0
VVECTOR 11 20
SWIDTH1 0 -1000
DWIDTH1 0 -25
BITMAP 
060C00
000000
000000
000000
FE0FE0
100100
100100
100100
100100
100100
100100
100100
100100
100100
100100
100100
100100
080200
060C00
01F000
ENDCHAR
STARTCHAR char87
ENCODING 135
SWIDTH 560 0
DWIDTH 14 0
BBX 12 18 1 0
VVECTOR 7 20
SWIDTH1 0 -1000
DWIDTH1 0 -25
BITMAP 
0180
0300
0400
0000
0000
0000
3F00
4080
0040
0040
03C0
1C40
6040
8040
8040
80C0
4340
3C30
ENDCHAR
STARTCHAR char88
ENCODING 136
SWIDTH 560 0
DWIDTH 14 0
BBX 12 18 1 0
VVECTOR 7 20
SWIDTH1 0 -1000
DWIDTH1 0 -25
BITMAP 
3000
1800
0400
0000
0000
0000
3F00
4080
0040
0040
03C0
1C40
6040
8040
8040
80C0
4340
3C30
ENDCHAR
STARTCHAR char89
ENCODING 137
SWIDTH 560 0
DWIDTH 14 0
BBX 12 19 1 0
VVECTOR 7 20
SWIDTH1 0 -1000
DWIDTH1 0 -25
BITMAP 
0400
0A00
1100
2080
0000
0000
0000
3F00
4080
0040
0040
03C0
1C40
6040
8040
8040
80C0
4340
3C30
ENDCHAR
STARTCHAR char8A
ENCODING 138
SWIDTH 560 0
DWIDTH 14 0
BBX 12 16 1 0
VVECTOR 7 20
SWIDTH1 0 -1000
DWIDTH1 0 -25
BITMAP 
30C0
0000
0000
0000
3F00
4080
0040
0040
03C0
1C40
6040
8040
8040
80C0
4340
3C30
ENDCHAR
STARTCHAR char8B
ENCODING 139
SWIDTH 560 0
DWIDTH 14 0
BBX 11 17 2 0
VVECTOR 8 20
SWIDTH1 0 -1000
DWIDTH1 0 -25
BITMAP 
3C20
43C0
0000
0000
0000
3F00
4080
0040
0040
03C0
1C40
6040
8040
8040
80C0
4340
3C20
ENDCHAR
STARTCHAR char8C
ENCODING 140
SWIDTH 560 0
DWIDTH 14 0
BBX 11 20 2 0
VVECTOR 8 20
SWIDTH1 0 -1000
DWIDTH1 0 -25
BITMAP 
0F00
1080
1080
1080
0F00
0000
0000
0000
3F00
4080
0040
0040
03C0
1C40
6040
8040
8040
80C0
4340
3C20
ENDCHAR
STARTCHAR char8D
ENCODING 141
SWIDTH 560 0
DWIDTH 14 0
BBX 10 17 2 -5
VVECTOR 7 20
SWIDTH1 0 -1000
DWIDTH1 0 -25
BITMAP 
1F00
2080
4040
8180
8000
8000
8000
8000
8000
4040
2080
1F00
0400
0F00
0080
0080
1F00
ENDCHAR
STARTCHAR char8E
ENCODING 142
SWIDTH 560 0
DWIDTH 14 0
BBX 10 18 2 0
VVECTOR 7 20
SWIDTH1 0 -1000
DWIDTH1 0 -25
BITMAP 
0180
0300
0400
0000
0000
0000
1E00
2100
4080
8040
8040
FFC0
8000
8000
8000
4000
2080
1F00
ENDCHAR
STARTCHAR char8F
ENCODING 143
SWIDTH 560 0
DWIDTH 14 0
BBX 10 18 2 0
VVECTOR 7 20
SWIDTH1 0 -1000
DWIDTH1 0 -25
BITMAP 
3000
1800
0400
0000
0000
0000
1E00
2100
4080
8040
8040
FFC0
8000
8000
8000
4000
2080
1F00
ENDCHAR
STARTCHAR char90
ENCODING 144
SWIDTH 560 0
DWIDTH 14 0
BBX 10 18 2 0
VVECTOR 7 20
SWIDTH1 0 -1000
DWIDTH1 0 -25
BITMAP 
0400
0A00
1100
2080
0000
0000
1E00
2100
4080
8040
8040
FFC0
8000
8000
8000
4080
2080
1F00
ENDCHAR
STARTCHAR char91
ENCODING 145
SWIDTH 560 0
DWIDTH 14 0
BBX 10 16 2 0
VVECTOR 7 20
SWIDTH1 0 -1000
DWIDTH1 0 -25
BITMAP 
6180
0000
0000
0000
1E00
2100
4080
8040
8040
FFC0
8000
8000
8000
4000
2080
1F00
ENDCHAR
STARTCHAR char92
ENCODING 146
SWIDTH 440 0
DWIDTH 11 0
BBX 7 18 2 0
VVECTOR 6 20
SWIDTH1 0 -1000
DWIDTH1 0 -25
BITMAP 
0C
18
20
00
00
00
F0
10
10
10
10
10
10
10
10
10
10
FE
ENDCHAR
STARTCHAR char93
ENCODING 147
SWIDTH 440 0
DWIDTH 11 0
BBX 7 18 2 0
VVECTOR 6 20
SWIDTH1 0 -1000
DWIDTH1 0 -25
BITMAP 
C0
60
10
00
00
00
F0
10
10
10
10
10
10
10
10
10
10
FE
ENDCHAR
STARTCHAR char94
ENCODING 148
SWIDTH 440 0
DWIDTH 11 0
BBX 7 18 2 0
VVECTOR 6 20
SWIDTH1 0 -1000
DWIDTH1 0 -25
BITMAP 
20
50
88
00
00
00
F0
10
10
10
10
10
10
10
10
10
10
FE
ENDCHAR
STARTCHAR char95
ENCODING 149
SWIDTH 440 0
DWIDTH 11 0
BBX 7 16 2 0
VVECTOR 6 20
SWIDTH1 0 -1000
DWIDTH1 0 -25
BITMAP 
C6
00
00
00
F0
10
10
10
10
10
10
10
10
10
10
FE
ENDCHAR
STARTCHAR char96
ENCODING 150
SWIDTH 720 0
DWIDTH 18 0
BBX 16 17 1 0
VVECTOR 9 20
SWIDTH1 0 -1000
DWIDTH1 0 -25
BITMAP 
0F08
10F0
0000
0000
0000
F1E0
1210
1408
1808
1008
1008
1008
1008
1008
1008
1008
FC0F
ENDCHAR
STARTCHAR char97
ENCODING 151
SWIDTH 560 0
DWIDTH 14 0
BBX 10 18 2 0
VVECTOR 7 20
SWIDTH1 0 -1000
DWIDTH1 0 -25
BITMAP 
0180
0300
0400
0000
0000
0000
1E00
2100
4080
8040
8040
8040
8040
8040
8040
4080
2100
1E00
ENDCHAR
STARTCHAR char98
ENCODING 152
SWIDTH 560 0
DWIDTH 14 0
BBX 10 18 2 0
VVECTOR 7 20
SWIDTH1 0 -1000
DWIDTH1 0 -25
BITMAP 
3000
1800
0400
0000
0000
0000
1E00
2100
4080
8040
8040
8040
8040
8040
8040
4080
2100
1E00
ENDCHAR
STARTCHAR char99
ENCODING 153
SWIDTH 560 0
DWIDTH 14 0
BBX 10 19 2 0
VVECTOR 7 20
SWIDTH1 0 -1000
DWIDTH1 0 -25
BITMAP 
0400
0A00
1100
2080
0000
0000
0000
1E00
2100
4080
8040
8040
8040
8040
8040
8040
4080
2100
1E00
ENDCHAR
STARTCHAR char9A
ENCODING 154
SWIDTH 560 0
DWIDTH 14 0
BBX 10 16 2 0
VVECTOR 7 20
SWIDTH1 0 -1000
DWIDTH1 0 -25
BITMAP 
6180
0000
0000
0000
1E00
2100
4080
8040
8040
8040
8040
8040
8040
4080
2100
1E00
ENDCHAR
STARTCHAR char9B
ENCODING 155
SWIDTH 560 0
DWIDTH 14 0
BBX 10 17 2 0
VVECTOR 7 20
SWIDTH1 0 -1000
DWIDTH1 0 -25
BITMAP 
7840
8780
0000
0000
0000
1E00
2100
4080
8040
8040
8040
8040
8040
8040
4080
2100
1E00
ENDCHAR
STARTCHAR char9C
ENCODING 156
SWIDTH 720 0
DWIDTH 18 0
BBX 16 18 1 0
VVECTOR 9 20
SWIDTH1 0 -1000
DWIDTH1 0 -25
BITMAP 
0060
00C0
0100
0000
0000
0000
F078
1008
1008
1008
1008
1008
1008
1008
1008
1028
0848
078F
ENDCHAR
STARTCHAR char9D
ENCODING 157
SWIDTH 720 0
DWIDTH 18 0
BBX 16 18 1 0
VVECTOR 9 20
SWIDTH1 0 -1000
DWIDTH1 0 -25
BITMAP 
0C00
0600
0100
0000
0000
0000
F078
1008
1008
1008
1008
1008
1008
1008
1008
1028
0848
078F
ENDCHAR
STARTCHAR char9E
ENCODING 158
SWIDTH 720 0
DWIDTH 18 0
BBX 16 19 1 0
VVECTOR 9 20
SWIDTH1 0 -1000
DWIDTH1 0 -25
BITMAP 
0100
0280
0440
0820
0000
0000
0000
F078
1008
1008
1008
1008
1008
1008
1008
1008
1028
0848
078F
ENDCHAR
STARTCHAR char9F
ENCODING 159
SWIDTH 720 0
DWIDTH 18 0
BBX 16 16 1 0
VVECTOR 9 20
SWIDTH1 0 -1000
DWIDTH1 0 -25
BITMAP 
1830
0000
0000
0000
F078
1008
1008
1008
1008
1008
1008
1008
1008
1028
0848
078F
ENDCHAR
STARTCHAR charA0
ENCODING 160
SWIDTH 520 0
DWIDTH 13 0
BBX 9 18 2 -1
VVECTOR 7 20
SWIDTH1 0 -1000
DWIDTH1 0 -25
BITMAP 
0800
0800
0800
8880
8880
FF80
8880
8880
0800
0800
0800
0800
0800
0800
0800
0800
0800
0800
ENDCHAR
STARTCHAR charA1
ENCODING 161
SWIDTH 440 0
DWIDTH 11 0
BBX 7 6 2 11
VVECTOR 6 20
SWIDTH1 0 -1000
DWIDTH1 0 -25
BITMAP 
7C
82
82
82
82
7C
ENDCHAR
STARTCHAR charA2
ENCODING 162
SWIDTH 520 0
DWIDTH 13 0
BBX 9 16 2 1
VVECTOR 7 20
SWIDTH1 0 -1000
DWIDTH1 0 -25
BITMAP 
0800
0800
0800
3E00
4100
8080
8000
8000
8000
8000
8080
4100
3E00
0800
0800
0800
ENDCHAR
STARTCHAR charA3
ENCODING 163
SWIDTH 680 0
DWIDTH 17 0
BBX 13 17 2 0
VVECTOR 9 20
SWIDTH1 0 -1000
DWIDTH1 0 -25
BITMAP 
0F00
1080
2040
2000
1000
1000
0800
7FC0
0400
0200
0200
0100
7900
8500
8300
8288
7C70
ENDCHAR
STARTCHAR charA4
ENCODING 164
SWIDTH 520 0
DWIDTH 13 0
BBX 9 18 2 -1
VVECTOR 7 20
SWIDTH1 0 -1000
DWIDTH1 0 -25
BITMAP 
3E00
4100
8300
8000
4000
3000
4C00
8300
8080
8080
6080
1900
0600
0100
0080
6080
4100
3E00
ENDCHAR
STARTCHAR charA5
ENCODING 165
SWIDTH 400 0
DWIDTH 10 0
BBX 6 5 2 7
VVECTOR 5 20
SWIDTH1 0 -1000
DWIDTH1 0 -25
BITMAP 
78
FC
FC
FC
78
ENDCHAR
STARTCHAR charA6
ENCODING 166
SWIDTH 640 0
DWIDTH 16 0
BBX 13 18 2 -1
VVECTOR 9 20
SWIDTH1 0 -1000
DWIDTH1 0 -25
BITMAP 
3C78
4440
8440
8440
8440
8440
4440
3C40
0440
0440
0440
0440
0440
0440
0440
0440
0440
0440
ENDCHAR
STARTCHAR charA7
ENCODING 167
SWIDTH 720 0
DWIDTH 18 0
BBX 15 17 1 0
VVECTOR 9 20
SWIDTH1 0 -1000
DWIDTH1 0 -25
BITMAP 
07C0
0820
1010
1010
1010
1020
1040
1080
1040
1020
1018
1004
1002
1102
1102
1104
F1F8
ENDCHAR
STARTCHAR charA8
ENCODING 168
SWIDTH 800 0
DWIDTH 20 0
BBX 16 15 2 1
VVECTOR 10 20
SWIDTH1 0 -1000
DWIDTH1 0 -25
BITMAP 
1FF8
2004
4002
8001
87C1
8421
8421
8781
8441
8421
8411
8001
4002
2004
1FF8
ENDCHAR
STARTCHAR charA9
ENCODING 169
SWIDTH 800 0
DWIDTH 20 0
BBX 16 15 2 1
VVECTOR 10 20
SWIDTH1 0 -1000
DWIDTH1 0 -25
BITMAP 
1FF8
2004
4002
8001
83C1
8421
8401
8401
8401
8421
83C1
8001
4002
2004
1FF8
ENDCHAR
STARTCHAR charAA
ENCODING 170
SWIDTH 680 0
DWIDTH 17 0
BBX 13 4 2 13
VVECTOR 9 20
SWIDTH1 0 -1000
DWIDTH1 0 -25
BITMAP 
FB18
22A8
2248
2208
ENDCHAR
STARTCHAR charAB
ENCODING 171
SWIDTH 640 0
DWIDTH 16 0
BBX 5 3 6 17
VVECTOR 9 20
SWIDTH1 0 -1000
DWIDTH1 0 -25
BITMAP 
38
60
80
ENDCHAR
STARTCHAR charAC
ENCODING 172
SWIDTH 640 0
DWIDTH 16 0
BBX 8 1 4 19
VVECTOR 8 20
SWIDTH1 0 -1000
DWIDTH1 0 -25
BITMAP 
C3
ENDCHAR
STARTCHAR charAD
ENCODING 173
SWIDTH 600 0
DWIDTH 15 0
BBX 11 11 2 4
VVECTOR 8 20
SWIDTH1 0 -1000
DWIDTH1 0 -25
BITMAP 
0040
0080
0100
FFE0
0200
0400
0800
FFE0
1000
2000
4000
ENDCHAR
STARTCHAR charAE
ENCODING 174
SWIDTH 1040 0
DWIDTH 26 0
BBX 23 17 1 0
VVECTOR 13 20
SWIDTH1 0 -1000
DWIDTH1 0 -25
BITMAP 
01FFFE
002406
004402
004402
008400
008410
010410
0107F0
020410
03FC10
040400
040400
080400
080402
100402
100406
FC1FFE
ENDCHAR
STARTCHAR charAF
ENCODING 175
SWIDTH 840 0
DWIDTH 21 0
BBX 17 17 2 0
VVECTOR 11 20
SWIDTH1 0 -1000
DWIDTH1 0 -25
BITMAP 
03E080
0C1900
100400
200600
200A00
401100
402100
404100
408100
410100
420100
440100
280200
300200
100400
4C1800
83E000
ENDCHAR
STARTCHAR charB0
ENCODING 176
SWIDTH 720 0
DWIDTH 18 0
BBX 14 7 2 6
VVECTOR 9 20
SWIDTH1 0 -1000
DWIDTH1 0 -25
BITMAP 
3870
4488
8104
8104
8204
4488
3870
ENDCHAR
STARTCHAR charB1
ENCODING 177
SWIDTH 600 0
DWIDTH 15 0
BBX 11 15 2 0
VVECTOR 8 20
SWIDTH1 0 -1000
DWIDTH1 0 -25
BITMAP 
0400
0400
0400
0400
0400
FFE0
0400
0400
0400
0400
0400
0000
0000
0000
FFE0
ENDCHAR
STARTCHAR charB2
ENCODING 178
SWIDTH 640 0
DWIDTH 16 0
BBX 11 14 2 0
VVECTOR 8 20
SWIDTH1 0 -1000
DWIDTH1 0 -25
BITMAP 
0200
0400
0800
1000
2000
1000
0800
0400
0200
0000
0000
0000
0000
FFE0
ENDCHAR
STARTCHAR charB3
ENCODING 179
SWIDTH 640 0
DWIDTH 16 0
BBX 11 14 2 0
VVECTOR 8 20
SWIDTH1 0 -1000
DWIDTH1 0 -25
BITMAP 
0800
0400
0200
0100
0080
0100
0200
0400
0800
0000
0000
0000
0000
FFE0
ENDCHAR
STARTCHAR charB4
ENCODING 180
SWIDTH 840 0
DWIDTH 21 0
BBX 19 17 1 0
VVECTOR 11 20
SWIDTH1 0 -1000
DWIDTH1 0 -25
BITMAP 
FE0FE0
080200
080200
040400
040400
020800
3E0F80
011000
00A000
00A000
3FFF80
004000
004000
004000
004000
004000
07FC00
ENDCHAR
STARTCHAR charB5
ENCODING 181
SWIDTH 680 0
DWIDTH 17 0
BBX 14 15 2 -3
VVECTOR 9 20
SWIDTH1 0 -1000
DWIDTH1 0 -25
BITMAP 
8040
8040
8040
8040
8040
8040
8040
8040
C040
A0C0
9144
8E38
8000
8000
8000
ENDCHAR
STARTCHAR charB6
ENCODING 182
SWIDTH 560 0
DWIDTH 14 0
BBX 10 17 2 0
VVECTOR 7 20
SWIDTH1 0 -1000
DWIDTH1 0 -25
BITMAP 
1E00
2100
0080
0080
0040
1E40
2140
40C0
8040
8040
8040
8040
8040
8080
4080
2100
1E00
ENDCHAR
STARTCHAR charB7
ENCODING 183
SWIDTH 760 0
DWIDTH 19 0
BBX 15 23 2 -4
VVECTOR 10 20
SWIDTH1 0 -1000
DWIDTH1 0 -25
BITMAP 
FFF8
6004
3002
1800
0C00
0600
0300
0180
00C0
0060
0030
0020
0040
0080
0100
0200
0400
0800
1000
2000
4002
8004
FFF8
ENDCHAR
STARTCHAR charB8
ENCODING 184
SWIDTH 760 0
DWIDTH 19 0
BBX 15 17 2 0
VVECTOR 10 20
SWIDTH1 0 -1000
DWIDTH1 0 -25
BITMAP 
FFFE
1010
1010
1010
1010
1010
1010
1010
1010
1010
1010
1010
1010
1010
1010
1010
FC7E
ENDCHAR
STARTCHAR charB9
ENCODING 185
SWIDTH 760 0
DWIDTH 19 0
BBX 16 13 1 0
VVECTOR 9 20
SWIDTH1 0 -1000
DWIDTH1 0 -25
BITMAP 
0001
3FFE
4208
8410
0410
0410
0410
0410
0410
0410
0410
0410
0820
ENDCHAR
STARTCHAR charBA
ENCODING 186
SWIDTH 640 0
DWIDTH 16 0
BBX 13 23 1 -4
VVECTOR 8 20
SWIDTH1 0 -1000
DWIDTH1 0 -25
BITMAP 
00E0
0110
0208
0218
0200
0200
0200
0200
0200
0200
0200
0200
0200
0200
0200
0200
0200
0200
0200
C200
8200
4400
3800
ENDCHAR
STARTCHAR charBB
ENCODING 187
SWIDTH 600 0
DWIDTH 15 0
BBX 13 17 1 0
VVECTOR 8 20
SWIDTH1 0 -1000
DWIDTH1 0 -25
BITMAP 
3F00
4080
0040
0040
03C0
1C40
6040
8040
8040
80C0
4348
3C30
0000
0000
0000
0000
FFF0
ENDCHAR
STARTCHAR charBC
ENCODING 188
SWIDTH 600 0
DWIDTH 15 0
BBX 11 17 2 0
VVECTOR 8 20
SWIDTH1 0 -1000
DWIDTH1 0 -25
BITMAP 
1F00
2080
4040
8020
8020
8020
8020
8020
8020
4040
2080
1F00
0000
0000
0000
0000
FFE0
ENDCHAR
STARTCHAR charBD
ENCODING 189
SWIDTH 680 0
DWIDTH 17 0
BBX 15 17 1 0
VVECTOR 9 20
SWIDTH1 0 -1000
DWIDTH1 0 -25
BITMAP 
07C0
1830
2008
4004
4004
4004
4004
2008
2008
2008
1010
1010
0820
0820
0440
8442
7C7C
ENDCHAR
STARTCHAR charBE
ENCODING 190
SWIDTH 920 0
DWIDTH 23 0
BBX 19 12 2 0
VVECTOR 12 20
SWIDTH1 0 -1000
DWIDTH1 0 -25
BITMAP 
3F0F00
409080
006040
004020
03C020
1C7FE0
604000
804000
804000
80A020
4310C0
3C0F00
ENDCHAR
STARTCHAR charBF
ENCODING 191
SWIDTH 600 0
DWIDTH 15 0
BBX 11 12 2 0
VVECTOR 8 20
SWIDTH1 0 -1000
DWIDTH1 0 -25
BITMAP 
1F00
2080
4040
80A0
8120
8220
8420
8820
9020
6040
2080
1F00
ENDCHAR
STARTCHAR charC0
ENCODING 192
SWIDTH 520 0
DWIDTH 13 0
BBX 10 17 1 0
VVECTOR 6 20
SWIDTH1 0 -1000
DWIDTH1 0 -25
BITMAP 
0400
0400
0000
0000
0400
0400
0400
0800
1000
2000
4000
8000
8000
80C0
4040
2080
1F00
ENDCHAR
STARTCHAR charC1
ENCODING 193
SWIDTH 360 0
DWIDTH 9 0
BBX 1 17 4 0
VVECTOR 5 20
SWIDTH1 0 -1000
DWIDTH1 0 -25
BITMAP 
80
80
00
00
00
80
80
80
80
80
80
80
80
80
80
80
80
ENDCHAR
STARTCHAR charC2
ENCODING 194
SWIDTH 600 0
DWIDTH 15 0
BBX 11 4 2 6
VVECTOR 8 20
SWIDTH1 0 -1000
DWIDTH1 0 -25
BITMAP 
FFE0
0020
0020
0020
ENDCHAR
STARTCHAR charC3
ENCODING 195
SWIDTH 640 0
DWIDTH 16 0
BBX 13 22 1 -3
VVECTOR 8 20
SWIDTH1 0 -1000
DWIDTH1 0 -25
BITMAP 
00F8
0080
0080
0080
0080
0080
0080
0080
0080
0080
0080
0080
0080
0080
0080
1080
3880
4C80
8680
0380
0180
0080
ENDCHAR
STARTCHAR charC4
ENCODING 196
SWIDTH 640 0
DWIDTH 16 0
BBX 13 20 1 -3
VVECTOR 8 20
SWIDTH1 0 -1000
DWIDTH1 0 -25
BITMAP 
00E0
0110
0208
0218
0200
0200
0200
0200
1FC0
0200
0200
0200
0200
0200
0200
0200
C200
8200
4400
3800
ENDCHAR
STARTCHAR charC5
ENCODING 197
SWIDTH 560 0
DWIDTH 14 0
BBX 10 6 2 6
VVECTOR 7 20
SWIDTH1 0 -1000
DWIDTH1 0 -25
BITMAP 
7840
8780
0000
0000
7840
8780
ENDCHAR
STARTCHAR charC6
ENCODING 198
SWIDTH 760 0
DWIDTH 19 0
BBX 15 18 2 0
VVECTOR 10 20
SWIDTH1 0 -1000
DWIDTH1 0 -25
BITMAP 
0100
0100
0280
0280
0440
0440
0820
0820
0820
1010
1010
2008
2008
4004
4004
8002
8002
FFFE
ENDCHAR
STARTCHAR charC7
ENCODING 199
SWIDTH 760 0
DWIDTH 19 0
BBX 11 9 5 3
VVECTOR 11 20
SWIDTH1 0 -1000
DWIDTH1 0 -25
BITMAP 
0820
1040
2080
4100
8200
4100
2080
1040
0820
ENDCHAR
STARTCHAR charC8
ENCODING 200
SWIDTH 760 0
DWIDTH 19 0
BBX 11 9 3 3
VVECTOR 9 20
SWIDTH1 0 -1000
DWIDTH1 0 -25
BITMAP 
8200
4100
2080
1040
0820
1040
2080
4100
8200
ENDCHAR
STARTCHAR charC9
ENCODING 201
SWIDTH 760 0
DWIDTH 19 0
BBX 16 2 2 0
VVECTOR 10 20
SWIDTH1 0 -1000
DWIDTH1 0 -25
BITMAP 
C183
C183
ENDCHAR
STARTCHAR charCA
ENCODING 202
SWIDTH 320 0
DWIDTH 8 0
BBX 0 0 8 -5
VVECTOR 8 -5
SWIDTH1 0 0
DWIDTH1 0 0
BITMAP 
ENDCHAR
STARTCHAR charCB
ENCODING 203
SWIDTH 840 0
DWIDTH 21 0
BBX 19 20 1 0
VVECTOR 11 20
SWIDTH1 0 -1000
DWIDTH1 0 -25
BITMAP 
018000
004000
000000
000000
004000
00A000
00A000
011000
011000
020800
020800
040400
040400
07FC00
080200
080200
100100
100100
100100
FE07E0
ENDCHAR
STARTCHAR charCC
ENCODING 204
SWIDTH 840 0
DWIDTH 21 0
BBX 19 20 1 0
VVECTOR 11 20
SWIDTH1 0 -1000
DWIDTH1 0 -25
BITMAP 
01C400
023800
000000
000000
004000
00A000
00A000
011000
011000
020800
020800
040400
040400
07FC00
080200
080200
100100
100100
100100
FE07E0
ENDCHAR
STARTCHAR charCD
ENCODING 205
SWIDTH 840 0
DWIDTH 21 0
BBX 15 20 3 0
VVECTOR 11 20
SWIDTH1 0 -1000
DWIDTH1 0 -25
BITMAP 
0710
08E0
0000
0000
07C0
1830
2008
4004
4004
8002
8002
8002
8002
8002
8002
4004
4004
2008
1830
07C0
ENDCHAR
STARTCHAR charCE
ENCODING 206
SWIDTH 1160 0
DWIDTH 29 0
BBX 24 17 3 0
VVECTOR 15 20
SWIDTH1 0 -1000
DWIDTH1 0 -25
BITMAP 
07FFFF
181C03
200C01
400401
400400
800410
800410
8007F0
800410
800410
800400
800400
400401
400401
200C01
181C03
07FFFF
ENDCHAR
STARTCHAR charCF
ENCODING 207
SWIDTH 880 0
DWIDTH 22 0
BBX 18 12 2 0
VVECTOR 11 20
SWIDTH1 0 -1000
DWIDTH1 0 -25
BITMAP 
1E0E00
211100
40A080
804040
804040
807FC0
804000
804000
804000
40A040
211080
1E0F00
ENDCHAR
STARTCHAR charD0
ENCODING 208
SWIDTH 440 0
DWIDTH 11 0
BBX 7 1 2 10
VVECTOR 6 20
SWIDTH1 0 -1000
DWIDTH1 0 -25
BITMAP 
FE
ENDCHAR
STARTCHAR charD1
ENCODING 209
SWIDTH 600 0
DWIDTH 15 0
BBX 15 1 0 10
VVECTOR 8 20
SWIDTH1 0 -1000
DWIDTH1 0 -25
BITMAP 
FFFE
ENDCHAR
STARTCHAR charD2
ENCODING 210
SWIDTH 560 0
DWIDTH 14 0
BBX 10 6 2 12
VVECTOR 7 20
SWIDTH1 0 -1000
DWIDTH1 0 -25
BITMAP 
2040
4080
8100
8100
E1C0
60C0
ENDCHAR
STARTCHAR charD3
ENCODING 211
SWIDTH 560 0
DWIDTH 14 0
BBX 10 6 2 12
VVECTOR 7 20
SWIDTH1 0 -1000
DWIDTH1 0 -25
BITMAP 
C180
E1C0
2040
2040
4080
8100
ENDCHAR
STARTCHAR charD4
ENCODING 212
SWIDTH 360 0
DWIDTH 9 0
BBX 3 6 3 12
VVECTOR 5 20
SWIDTH1 0 -1000
DWIDTH1 0 -25
BITMAP 
20
40
80
C0
E0
60
ENDCHAR
STARTCHAR charD5
ENCODING 213
SWIDTH 360 0
DWIDTH 9 0
BBX 3 6 3 12
VVECTOR 5 20
SWIDTH1 0 -1000
DWIDTH1 0 -25
BITMAP 
C0
E0
20
20
40
80
ENDCHAR
STARTCHAR charD6
ENCODING 214
SWIDTH 600 0
DWIDTH 15 0
BBX 11 9 2 5
VVECTOR 8 20
SWIDTH1 0 -1000
DWIDTH1 0 -25
BITMAP 
0E00
0000
0000
0000
FFE0
0000
0000
0000
0E00
ENDCHAR
STARTCHAR charD7
ENCODING 215
SWIDTH 600 0
DWIDTH 15 0
BBX 13 13 1 3
VVECTOR 8 20
SWIDTH1 0 -1000
DWIDTH1 0 -25
BITMAP 
0200
0500
0880
1040
2020
4010
8008
4010
2020
1040
0880
0500
0200
ENDCHAR
STARTCHAR charD8
ENCODING 216
SWIDTH 680 0
DWIDTH 17 0
BBX 15 21 1 -5
VVECTOR 9 20
SWIDTH1 0 -1000
DWIDTH1 0 -25
BITMAP 
0C30
0000
0000
0000
FC7E
1010
1010
1010
0820
0820
0440
0440
0440
0280
0280
0100
0100
0200
C200
8400
7800
ENDCHAR
STARTCHAR missing
ENCODING -1
SWIDTH 760 0
DWIDTH 19 0
BBX 15 23 2 -4
VVECTOR 10 20
SWIDTH1 0 -1000
DWIDTH1 0 -25
BITMAP 
FFFE
F03E
C00E
8006
8306
8786
8786
FF86
FF86
FF06
FE0E
FC1E
F83E
F87E
F87E
F87E
FFFE
FFFE
F87E
F03E
F03E
F87E
FFFE
ENDCHAR
ENDFONT
